<svg width="15" height="18" viewBox="0 0 15 18" fill="none" xmlns="http://www.w3.org/2000/svg">
<path d="M10.5833 16.8041L4.73714 17.5431C3.3869 17.7138 2.14961 16.7542 1.97892 15.404L0.930334 7.1091C0.759645 5.75887 1.71922 4.52158 3.06946 4.35089L8.91566 3.61185C10.2659 3.44116 11.5032 4.40074 11.6739 5.75097L12.7225 14.0458C12.8932 15.3961 11.9336 16.6334 10.5833 16.8041ZM3.22423 5.57522C2.54917 5.66056 2.06933 6.27927 2.15467 6.95433L3.20326 15.2492C3.28859 15.9243 3.90731 16.4041 4.58236 16.3188L10.4286 15.5797C11.1036 15.4944 11.5835 14.8757 11.4981 14.2006L10.4495 5.90575C10.3642 5.23069 9.7455 4.75085 9.07044 4.83618L3.22423 5.57522ZM14.9777 12.2059L13.8091 2.96215C13.6385 1.61191 12.4012 0.652332 11.0509 0.823021L4.25586 1.68201C3.91773 1.72475 3.67833 2.03344 3.72108 2.37156C3.76382 2.70969 4.0725 2.94909 4.41063 2.90635L11.2057 2.04736C11.8808 1.96202 12.4995 2.44186 12.5848 3.11692L13.7533 12.3607C13.7961 12.6988 14.1048 12.9382 14.4429 12.8954C14.781 12.8527 15.0204 12.544 14.9777 12.2059Z" fill="black"/>
</svg>
