<svg width="48" height="48" viewBox="0 0 48 48" fill="none" xmlns="http://www.w3.org/2000/svg">
<rect x="1.63355" y="1.63355" width="44.7329" height="44.7329" rx="22.3665" fill="white"/>
<rect x="1.63355" y="1.63355" width="44.7329" height="44.7329" rx="22.3665" stroke="black" stroke-width="3.2671"/>
<g clip-path="url(#clip0_54_18)">
<mask id="path-2-inside-1_54_18" fill="white">
<path d="M16.6766 23.7369C16.6766 23.5891 16.7058 23.4427 16.7626 23.3062C16.8193 23.1698 16.9025 23.0458 17.0072 22.9416C17.112 22.8373 17.2363 22.7548 17.3731 22.6987C17.5098 22.6426 17.6563 22.6141 17.8041 22.6148L19.6735 22.6209C19.9716 22.6209 20.2574 22.7393 20.4682 22.95C20.6789 23.1608 20.7973 23.4467 20.7973 23.7447V30.8131C21.0078 30.7508 21.2781 30.6841 21.5738 30.6145C21.7793 30.5663 21.9624 30.45 22.0934 30.2846C22.2244 30.1191 22.2957 29.9144 22.2957 29.7033V20.9352C22.2957 20.6371 22.4141 20.3512 22.6248 20.1404C22.8356 19.9296 23.1214 19.8112 23.4195 19.8111H25.2926C25.5907 19.8112 25.8765 19.9296 26.0873 20.1404C26.298 20.3512 26.4164 20.6371 26.4164 20.9352V29.0728C26.4164 29.0728 26.8854 28.8831 27.3422 28.6903C27.5119 28.6185 27.6567 28.4984 27.7586 28.3448C27.8604 28.1913 27.9148 28.0112 27.915 27.8269V18.1256C27.915 17.8276 28.0334 17.5418 28.2441 17.331C28.4548 17.1203 28.7405 17.0019 29.0386 17.0018H30.9117C31.2098 17.0018 31.4957 17.1202 31.7063 17.3309C31.9171 17.5417 32.0356 17.8276 32.0356 18.1256V26.1144C33.6595 24.9375 35.3051 23.5221 36.611 21.82C36.8006 21.573 36.926 21.2829 36.9759 20.9756C37.026 20.6683 36.9993 20.3534 36.8982 20.059C36.2937 18.3197 35.3327 16.7257 34.0769 15.3791C32.821 14.0325 31.2977 12.9629 29.6047 12.2387C27.9118 11.5146 26.0862 11.1518 24.245 11.1737C22.4038 11.1955 20.5874 11.6016 18.912 12.3657C17.2367 13.1299 15.7394 14.2353 14.5158 15.6114C13.2923 16.9875 12.3694 18.6038 11.8064 20.357C11.2434 22.1102 11.0526 23.9616 11.2462 25.7927C11.4397 27.6239 12.0135 29.3945 12.9306 30.9913C13.0904 31.2667 13.3254 31.4907 13.6081 31.6373C13.8909 31.7838 14.2095 31.8465 14.5267 31.8181C14.881 31.787 15.3221 31.7428 15.8466 31.6813C16.0749 31.6554 16.2857 31.5464 16.4388 31.375C16.5919 31.2038 16.6766 30.9821 16.6768 30.7523V23.7369"/>
</mask>
<path d="M16.6766 23.7369C16.6766 23.5891 16.7058 23.4427 16.7626 23.3062C16.8193 23.1698 16.9025 23.0458 17.0072 22.9416C17.112 22.8373 17.2363 22.7548 17.3731 22.6987C17.5098 22.6426 17.6563 22.6141 17.8041 22.6148L19.6735 22.6209C19.9716 22.6209 20.2574 22.7393 20.4682 22.95C20.6789 23.1608 20.7973 23.4467 20.7973 23.7447V30.8131C21.0078 30.7508 21.2781 30.6841 21.5738 30.6145C21.7793 30.5663 21.9624 30.45 22.0934 30.2846C22.2244 30.1191 22.2957 29.9144 22.2957 29.7033V20.9352C22.2957 20.6371 22.4141 20.3512 22.6248 20.1404C22.8356 19.9296 23.1214 19.8112 23.4195 19.8111H25.2926C25.5907 19.8112 25.8765 19.9296 26.0873 20.1404C26.298 20.3512 26.4164 20.6371 26.4164 20.9352V29.0728C26.4164 29.0728 26.8854 28.8831 27.3422 28.6903C27.5119 28.6185 27.6567 28.4984 27.7586 28.3448C27.8604 28.1913 27.9148 28.0112 27.915 27.8269V18.1256C27.915 17.8276 28.0334 17.5418 28.2441 17.331C28.4548 17.1203 28.7405 17.0019 29.0386 17.0018H30.9117C31.2098 17.0018 31.4957 17.1202 31.7063 17.3309C31.9171 17.5417 32.0356 17.8276 32.0356 18.1256V26.1144C33.6595 24.9375 35.3051 23.5221 36.611 21.82C36.8006 21.573 36.926 21.2829 36.9759 20.9756C37.026 20.6683 36.9993 20.3534 36.8982 20.059C36.2937 18.3197 35.3327 16.7257 34.0769 15.3791C32.821 14.0325 31.2977 12.9629 29.6047 12.2387C27.9118 11.5146 26.0862 11.1518 24.245 11.1737C22.4038 11.1955 20.5874 11.6016 18.912 12.3657C17.2367 13.1299 15.7394 14.2353 14.5158 15.6114C13.2923 16.9875 12.3694 18.6038 11.8064 20.357C11.2434 22.1102 11.0526 23.9616 11.2462 25.7927C11.4397 27.6239 12.0135 29.3945 12.9306 30.9913C13.0904 31.2667 13.3254 31.4907 13.6081 31.6373C13.8909 31.7838 14.2095 31.8465 14.5267 31.8181C14.881 31.787 15.3221 31.7428 15.8466 31.6813C16.0749 31.6554 16.2857 31.5464 16.4388 31.375C16.5919 31.2038 16.6766 30.9821 16.6768 30.7523V23.7369" fill="#0A0B0D"/>
<path d="M16.7626 23.3062L17.1679 23.4748L17.168 23.4748L16.7626 23.3062ZM17.0072 22.9416L16.6976 22.6304L16.6976 22.6304L17.0072 22.9416ZM17.3731 22.6987L17.2065 22.2925L17.2065 22.2925L17.3731 22.6987ZM17.8041 22.6148L17.8021 23.0538L17.8027 23.0538L17.8041 22.6148ZM19.6735 22.6209L19.6721 23.0599H19.6735V22.6209ZM20.4682 22.95L20.7786 22.6396L20.7786 22.6396L20.4682 22.95ZM20.7973 30.8131H20.3583V31.4011L20.9221 31.2341L20.7973 30.8131ZM21.5738 30.6145L21.4735 30.1871L21.4732 30.1871L21.5738 30.6145ZM22.0934 30.2846L22.4374 30.5573L22.4376 30.5572L22.0934 30.2846ZM22.2957 29.7033H21.8567V29.7033L22.2957 29.7033ZM22.6248 20.1404L22.3144 19.83L22.3144 19.83L22.6248 20.1404ZM23.4195 19.8111V19.3721H23.4194L23.4195 19.8111ZM25.2926 19.8111L25.2927 19.3721H25.2926V19.8111ZM26.0873 20.1404L26.3977 19.83L26.3977 19.83L26.0873 20.1404ZM26.4164 29.0728H25.9774V29.724L26.581 29.4798L26.4164 29.0728ZM27.3422 28.6903L27.5129 29.0948L27.5134 29.0946L27.3422 28.6903ZM27.7586 28.3448L27.3928 28.1021L27.3927 28.1022L27.7586 28.3448ZM27.915 27.8269L28.354 27.8273V27.8269H27.915ZM28.2441 17.331L28.5545 17.6414L28.5545 17.6414L28.2441 17.331ZM29.0386 17.0018V16.5628H29.0385L29.0386 17.0018ZM31.7063 17.3309L31.3958 17.6413L31.3959 17.6414L31.7063 17.3309ZM32.0356 26.1144H31.5966V26.9748L32.2932 26.4699L32.0356 26.1144ZM36.611 21.82L36.9593 22.0873L36.9594 22.0872L36.611 21.82ZM36.9759 20.9756L36.5426 20.905L36.5426 20.9052L36.9759 20.9756ZM36.8982 20.059L37.3134 19.9165L37.3129 19.9149L36.8982 20.059ZM29.6047 12.2387L29.7774 11.8351V11.8351L29.6047 12.2387ZM24.245 11.1737L24.2502 11.6127L24.245 11.1737ZM18.912 12.3657L19.0942 12.7651L19.0942 12.7651L18.912 12.3657ZM14.5158 15.6114L14.8439 15.9031L14.8439 15.9031L14.5158 15.6114ZM11.8064 20.357L11.3884 20.2228L11.3884 20.2228L11.8064 20.357ZM11.2462 25.7927L11.6827 25.7466L11.6827 25.7466L11.2462 25.7927ZM12.9306 30.9913L12.5499 31.2099L12.5509 31.2116L12.9306 30.9913ZM13.6081 31.6373L13.4062 32.027L13.4062 32.027L13.6081 31.6373ZM14.5267 31.8181L14.4883 31.3808L14.4876 31.3809L14.5267 31.8181ZM15.8466 31.6813L15.7971 31.2451L15.7954 31.2453L15.8466 31.6813ZM16.4388 31.375L16.1115 31.0824L16.1114 31.0825L16.4388 31.375ZM16.6768 30.7523L17.1158 30.7527V30.7523H16.6768ZM17.1156 23.737C17.1156 23.647 17.1334 23.5579 17.1679 23.4748L16.3572 23.1377C16.2783 23.3276 16.2376 23.5312 16.2376 23.7368L17.1156 23.737ZM17.168 23.4748C17.2025 23.3917 17.2531 23.3162 17.3169 23.2527L16.6976 22.6304C16.5518 22.7755 16.4362 22.9479 16.3572 23.1377L17.168 23.4748ZM17.3169 23.2528C17.3807 23.1893 17.4564 23.139 17.5396 23.1049L17.2065 22.2925C17.0162 22.3705 16.8433 22.4854 16.6976 22.6304L17.3169 23.2528ZM17.5396 23.1049C17.6229 23.0707 17.7121 23.0534 17.8021 23.0538L17.8062 22.1758C17.6005 22.1748 17.3968 22.2145 17.2065 22.2925L17.5396 23.1049ZM17.8027 23.0538L19.6721 23.0599L19.6749 22.1819L17.8055 22.1758L17.8027 23.0538ZM19.6735 23.0599C19.8551 23.0599 20.0293 23.132 20.1578 23.2605L20.7786 22.6396C20.4855 22.3466 20.088 22.1819 19.6735 22.1819V23.0599ZM20.1577 23.2605C20.2862 23.3889 20.3583 23.5631 20.3583 23.7447H21.2363C21.2363 23.3302 21.0717 22.9327 20.7786 22.6396L20.1577 23.2605ZM20.3583 23.7447V30.8131H21.2363V23.7447H20.3583ZM20.9221 31.2341C21.1194 31.1756 21.379 31.1113 21.6744 31.0418L21.4732 30.1871C21.1771 30.2568 20.8961 30.326 20.6726 30.3922L20.9221 31.2341ZM21.6741 31.0419C21.976 30.971 22.245 30.8002 22.4374 30.5573L21.7494 30.012C21.6798 30.0998 21.5825 30.1615 21.4735 30.1871L21.6741 31.0419ZM22.4376 30.5572C22.63 30.3141 22.7348 30.0134 22.7347 29.7032L21.8567 29.7033C21.8567 29.8154 21.8189 29.9241 21.7492 30.0121L22.4376 30.5572ZM22.7347 29.7033V20.9352H21.8567V29.7033H22.7347ZM22.7347 20.9352C22.7347 20.7535 22.8068 20.5793 22.9353 20.4508L22.3144 19.83C22.0213 20.1232 21.8567 20.5207 21.8567 20.9352H22.7347ZM22.9353 20.4508C23.0637 20.3224 23.2379 20.2502 23.4196 20.2501L23.4194 19.3721C23.0049 19.3722 22.6075 19.5369 22.3144 19.83L22.9353 20.4508ZM23.4195 20.2501H25.2926V19.3721H23.4195V20.2501ZM25.2925 20.2501C25.4742 20.2502 25.6484 20.3224 25.7769 20.4508L26.3977 19.83C26.1047 19.5369 25.7072 19.3722 25.2927 19.3721L25.2925 20.2501ZM25.7768 20.4508C25.9053 20.5793 25.9774 20.7535 25.9774 20.9352H26.8554C26.8554 20.5207 26.6908 20.1231 26.3977 19.83L25.7768 20.4508ZM25.9774 20.9352V29.0728H26.8554V20.9352H25.9774ZM26.4164 29.0728C26.581 29.4798 26.5811 29.4798 26.5811 29.4798C26.5811 29.4798 26.5811 29.4798 26.5811 29.4798C26.5811 29.4798 26.5811 29.4798 26.5812 29.4798C26.5812 29.4797 26.5813 29.4797 26.5814 29.4797C26.5817 29.4796 26.582 29.4794 26.5825 29.4792C26.5834 29.4788 26.5848 29.4783 26.5866 29.4776C26.5902 29.4761 26.5956 29.4739 26.6025 29.4711C26.6164 29.4655 26.6366 29.4573 26.6623 29.4468C26.7137 29.4259 26.787 29.396 26.8747 29.36C27.0497 29.2882 27.2827 29.192 27.5129 29.0948L27.1715 28.2859C26.945 28.3815 26.715 28.4765 26.5414 28.5477C26.4547 28.5833 26.3822 28.6129 26.3314 28.6336C26.306 28.6439 26.286 28.652 26.2725 28.6575C26.2657 28.6603 26.2605 28.6624 26.257 28.6638C26.2553 28.6645 26.2539 28.665 26.2531 28.6654C26.2526 28.6655 26.2523 28.6657 26.2521 28.6658C26.252 28.6658 26.2519 28.6658 26.2519 28.6658C26.2519 28.6659 26.2518 28.6659 26.2518 28.6659C26.2518 28.6659 26.2518 28.6659 26.2518 28.6659C26.2518 28.6659 26.2518 28.6659 26.4164 29.0728ZM27.5134 29.0946C27.7623 28.9892 27.9748 28.813 28.1244 28.5874L27.3927 28.1022C27.3386 28.1838 27.2615 28.2477 27.171 28.2861L27.5134 29.0946ZM28.1244 28.5875C28.2739 28.3622 28.3538 28.0978 28.354 27.8273L27.476 27.8265C27.4759 27.9246 27.447 28.0204 27.3928 28.1021L28.1244 28.5875ZM28.354 27.8269V18.1256H27.476V27.8269H28.354ZM28.354 18.1256C28.354 17.944 28.4261 17.7698 28.5545 17.6414L27.9336 17.0206C27.6406 17.3137 27.476 17.7112 27.476 18.1256H28.354ZM28.5545 17.6414C28.6829 17.513 28.857 17.4408 29.0387 17.4408L29.0385 16.5628C28.624 16.5629 28.2266 16.7276 27.9336 17.0207L28.5545 17.6414ZM29.0386 17.4408H30.9117V16.5628H29.0386V17.4408ZM30.9117 17.4408C31.0934 17.4408 31.2676 17.513 31.3958 17.6413L32.0168 17.0206C31.7238 16.7274 31.3261 16.5628 30.9117 16.5628V17.4408ZM31.3959 17.6414C31.5244 17.7699 31.5966 17.9441 31.5966 18.1256H32.4746C32.4746 17.711 32.3097 17.3135 32.0167 17.0205L31.3959 17.6414ZM31.5966 18.1256V26.1144H32.4746V18.1256H31.5966ZM32.2932 26.4699C33.936 25.2792 35.6181 23.8353 36.9593 22.0873L36.2627 21.5528C34.992 23.2089 33.3829 24.5958 31.778 25.759L32.2932 26.4699ZM36.9594 22.0872C37.193 21.7827 37.3477 21.425 37.4092 21.046L36.5426 20.9052C36.5043 21.1407 36.4082 21.3632 36.2627 21.5528L36.9594 22.0872ZM37.4092 21.0463C37.471 20.6674 37.438 20.2793 37.3134 19.9165L36.483 20.2015C36.5606 20.4276 36.5811 20.6692 36.5426 20.905L37.4092 21.0463ZM37.3129 19.9149C36.6883 18.1179 35.6954 16.471 34.3979 15.0797L33.7558 15.6785C34.97 16.9805 35.899 18.5215 36.4835 20.2031L37.3129 19.9149ZM34.3979 15.0797C33.1004 13.6884 31.5265 12.5833 29.7774 11.8351L29.4321 12.6423C31.0689 13.3425 32.5416 14.3766 33.7558 15.6785L34.3979 15.0797ZM29.7774 11.8351C28.0282 11.0869 26.1421 10.7121 24.2398 10.7347L24.2502 11.6127C26.0303 11.5915 27.7953 11.9422 29.4321 12.6423L29.7774 11.8351ZM24.2398 10.7347C22.3375 10.7573 20.4608 11.1768 18.7299 11.9663L19.0942 12.7651C20.7139 12.0263 22.4701 11.6338 24.2502 11.6127L24.2398 10.7347ZM18.7299 11.9663C16.9989 12.7558 15.4519 13.898 14.1877 15.3197L14.8439 15.9031C16.0268 14.5727 17.4745 13.5039 19.0942 12.7651L18.7299 11.9663ZM14.1877 15.3197C12.9236 16.7414 11.9702 18.4114 11.3884 20.2228L12.2244 20.4912C12.7687 18.7962 13.6609 17.2335 14.8439 15.9031L14.1877 15.3197ZM11.3884 20.2228C10.8067 22.0341 10.6096 23.947 10.8096 25.8389L11.6827 25.7466C11.4956 23.9762 11.6801 22.1862 12.2244 20.4912L11.3884 20.2228ZM10.8096 25.8389C11.0096 27.7308 11.6023 29.5602 12.5499 31.2099L13.3113 30.7726C12.4246 29.2289 11.8699 27.517 11.6827 25.7466L10.8096 25.8389ZM12.5509 31.2116C12.7526 31.5592 13.0493 31.8421 13.4062 32.027L13.8101 31.2475C13.6015 31.1394 13.4282 30.9741 13.3103 30.771L12.5509 31.2116ZM13.4062 32.027C13.7631 32.212 14.1654 32.2912 14.5657 32.2554L14.4876 31.3809C14.2536 31.4018 14.0186 31.3555 13.8101 31.2475L13.4062 32.027ZM14.565 32.2555C14.9238 32.224 15.3692 32.1793 15.8977 32.1173L15.7954 31.2453C15.275 31.3063 14.8381 31.3501 14.4883 31.3808L14.565 32.2555ZM15.8961 32.1175C16.2315 32.0794 16.5412 31.9193 16.7662 31.6675L16.1114 31.0825C16.0301 31.1735 15.9182 31.2314 15.7971 31.2451L15.8961 32.1175ZM16.766 31.6676C16.9911 31.416 17.1155 31.0903 17.1158 30.7527L16.2378 30.752C16.2377 30.874 16.1927 30.9916 16.1115 31.0824L16.766 31.6676ZM17.1158 30.7523V23.7369H16.2378V30.7523H17.1158Z" fill="black" mask="url(#path-2-inside-1_54_18)"/>
<path d="M16.6766 23.7369C16.6766 23.5891 16.7058 23.4427 16.7626 23.3062C16.8193 23.1698 16.9025 23.0458 17.0072 22.9416C17.112 22.8373 17.2363 22.7548 17.3731 22.6987C17.5098 22.6426 17.6563 22.6141 17.8041 22.6148L19.6735 22.6209C19.9716 22.6209 20.2574 22.7393 20.4682 22.95C20.6789 23.1608 20.7973 23.4467 20.7973 23.7447V30.8131C21.0078 30.7508 21.2781 30.6841 21.5738 30.6145C21.7793 30.5663 21.9624 30.45 22.0934 30.2846C22.2244 30.1191 22.2957 29.9144 22.2957 29.7033V20.9352C22.2957 20.6371 22.4141 20.3512 22.6248 20.1404C22.8356 19.9296 23.1214 19.8112 23.4195 19.8111H25.2926C25.5907 19.8112 25.8765 19.9296 26.0873 20.1404C26.298 20.3512 26.4164 20.6371 26.4164 20.9352V29.0728C26.4164 29.0728 26.8854 28.8831 27.3422 28.6903C27.5119 28.6185 27.6567 28.4984 27.7586 28.3448C27.8604 28.1913 27.9148 28.0112 27.915 27.8269V18.1256C27.915 17.8276 28.0334 17.5418 28.2441 17.331C28.4548 17.1203 28.7405 17.0019 29.0386 17.0018H30.9117C31.2098 17.0018 31.4957 17.1202 31.7063 17.3309C31.9171 17.5417 32.0356 17.8276 32.0356 18.1256V26.1144C33.6595 24.9375 35.3051 23.5221 36.611 21.82C36.8006 21.573 36.926 21.2829 36.9759 20.9756C37.026 20.6683 36.9993 20.3534 36.8982 20.059C36.2937 18.3197 35.3327 16.7257 34.0769 15.3791C32.821 14.0325 31.2977 12.9629 29.6047 12.2387C27.9118 11.5146 26.0862 11.1518 24.245 11.1737C22.4038 11.1955 20.5874 11.6016 18.912 12.3657C17.2367 13.1299 15.7394 14.2353 14.5158 15.6114C13.2923 16.9875 12.3694 18.6038 11.8064 20.357C11.2434 22.1102 11.0526 23.9616 11.2462 25.7927C11.4397 27.6239 12.0135 29.3945 12.9306 30.9913C13.0904 31.2667 13.3254 31.4907 13.6081 31.6373C13.8909 31.7838 14.2095 31.8465 14.5267 31.8181C14.881 31.787 15.3221 31.7428 15.8466 31.6813C16.0749 31.6554 16.2857 31.5464 16.4388 31.375C16.5919 31.2038 16.6766 30.9821 16.6768 30.7523V23.7369" stroke="white" stroke-width="0.172769"/>
<mask id="path-5-inside-2_54_18" fill="white">
<path d="M16.6355 35.0742C18.6099 36.5106 20.9432 37.3727 23.3772 37.5652C25.8112 37.7578 28.251 37.2732 30.4266 36.1652C32.6023 35.0571 34.4292 33.3686 35.7047 31.2867C36.9803 29.2049 37.6551 26.8107 37.6544 24.3691C37.6544 24.0644 37.6402 23.763 37.62 23.4634C32.7846 30.675 23.8565 34.0465 16.6359 35.073"/>
</mask>
<path d="M16.6355 35.0742C18.6099 36.5106 20.9432 37.3727 23.3772 37.5652C25.8112 37.7578 28.251 37.2732 30.4266 36.1652C32.6023 35.0571 34.4292 33.3686 35.7047 31.2867C36.9803 29.2049 37.6551 26.8107 37.6544 24.3691C37.6544 24.0644 37.6402 23.763 37.62 23.4634C32.7846 30.675 23.8565 34.0465 16.6359 35.073" fill="#0A0B0D"/>
<path d="M23.3772 37.5652L23.3945 37.3463L23.3945 37.3463L23.3772 37.5652ZM30.4266 36.1652L30.5262 36.3608L30.5262 36.3608L30.4266 36.1652ZM37.6544 24.3691H37.4349V24.3692L37.6544 24.3691ZM37.62 23.4634L37.839 23.4486L37.7958 22.8071L37.4377 23.3411L37.62 23.4634ZM16.5064 35.2517C18.5135 36.7119 20.8855 37.5883 23.3599 37.784L23.3945 37.3463C21.0008 37.1571 18.7063 36.3093 16.7646 34.8967L16.5064 35.2517ZM23.3599 37.784C25.8342 37.9798 28.3145 37.4872 30.5262 36.3608L30.327 35.9696C28.1875 37.0592 25.7881 37.5358 23.3945 37.3463L23.3599 37.784ZM30.5262 36.3608C32.738 35.2343 34.5952 33.5178 35.8919 31.4014L35.5175 31.1721C34.2631 33.2194 32.4666 34.8799 30.327 35.9696L30.5262 36.3608ZM35.8919 31.4014C37.1886 29.285 37.8746 26.8512 37.8739 24.369L37.4349 24.3692C37.4356 26.7703 36.7719 29.1247 35.5175 31.1721L35.8919 31.4014ZM37.8739 24.3691C37.8739 24.0578 37.8594 23.7511 37.839 23.4486L37.401 23.4781C37.421 23.775 37.4349 24.0711 37.4349 24.3691H37.8739ZM37.4377 23.3411C32.6523 30.4781 23.7978 33.8332 16.6051 34.8557L16.6668 35.2903C23.9153 34.2599 32.9169 30.8718 37.8023 23.5856L37.4377 23.3411Z" fill="white" mask="url(#path-5-inside-2_54_18)"/>
</g>
<defs>
<clipPath id="clip0_54_18">
<rect width="26.7792" height="26.6064" fill="white" transform="translate(11 11)"/>
</clipPath>
</defs>
</svg>
