<svg width="29" height="29" viewBox="0 0 29 29" fill="none" xmlns="http://www.w3.org/2000/svg">
<path d="M24.6433 1.8125H4.35686C2.91184 1.8125 1.73547 2.98847 1.73547 4.43388V24.7203C1.73569 26.1653 2.91167 27.3412 4.35663 27.3412H24.643C26.088 27.3412 27.2644 26.1652 27.2644 24.7198V4.43343C27.2642 2.98842 26.0882 1.8125 24.6433 1.8125ZM26.4082 24.7197C26.4082 25.693 25.6165 26.4848 24.643 26.4848H4.35663C3.38332 26.4848 2.59148 25.693 2.59148 24.7197V4.43326C2.59148 3.45995 3.38315 2.66811 4.35663 2.66811H24.643C25.6163 2.66811 26.4082 3.45995 26.4082 4.43326V24.7197Z" fill="#030303"/>
<path d="M21.8825 7.25671H7.11803C6.57773 7.25671 6.13611 7.69856 6.13611 8.23841V9.21965C6.13611 9.7595 6.57817 10.2013 7.11803 10.2013H21.8825C22.4215 10.2013 22.8638 9.7595 22.8638 9.21965V8.23841C22.8642 7.69833 22.4215 7.25671 21.8825 7.25671Z" fill="#030303"/>
<path d="M21.8825 13.0234H7.11803C6.57773 13.0234 6.13611 13.4648 6.13611 14.0047V14.9864C6.13611 15.5267 6.57817 15.9681 7.11803 15.9681H21.8825C22.4215 15.9681 22.8638 15.5262 22.8638 14.9864V14.0047C22.8642 13.4653 22.4215 13.0234 21.8825 13.0234Z" fill="#030303"/>
<path d="M21.8825 18.7905H7.11803C6.57773 18.7905 6.13611 19.2324 6.13611 19.7722V20.7539C6.13611 21.2938 6.57817 21.7356 7.11803 21.7356H21.8825C22.4215 21.7356 22.8638 21.2938 22.8638 20.7539V19.7722C22.8642 19.2324 22.4215 18.7905 21.8825 18.7905Z" fill="#030303"/>
</svg>
